<?xml version="1.0" encoding="UTF-8" ?>
<svg version="1.1" width="32" height="32" xmlns="http://www.w3.org/2000/svg" shape-rendering="crispEdges">
<rect x="7" y="4" width="19" height="1" fill="#000000" />
<rect x="6" y="5" width="2" height="1" fill="#000000" />
<rect x="8" y="5" width="2" height="1" fill="#FECB60" />
<rect x="10" y="5" width="13" height="1" fill="#D18C27" />
<rect x="23" y="5" width="2" height="1" fill="#FECB60" />
<rect x="25" y="5" width="2" height="1" fill="#000000" />
<rect x="5" y="6" width="2" height="1" fill="#000000" />
<rect x="7" y="6" width="1" height="1" fill="#FECB60" />
<rect x="8" y="6" width="8" height="1" fill="#92590C" />
<rect x="16" y="6" width="1" height="18" fill="#000000" />
<rect x="17" y="6" width="8" height="1" fill="#92590C" />
<rect x="25" y="6" width="1" height="1" fill="#FECB60" />
<rect x="26" y="6" width="2" height="1" fill="#000000" />
<rect x="4" y="7" width="2" height="1" fill="#000000" />
<rect x="6" y="7" width="1" height="1" fill="#FECB60" />
<rect x="7" y="7" width="1" height="1" fill="#92590C" />
<rect x="8" y="7" width="7" height="1" fill="#CC912B" />
<rect x="15" y="7" width="1" height="17" fill="#000000" />
<rect x="17" y="7" width="1" height="17" fill="#000000" />
<rect x="18" y="7" width="7" height="1" fill="#CC912B" />
<rect x="25" y="7" width="1" height="1" fill="#92590C" />
<rect x="26" y="7" width="1" height="1" fill="#FECB60" />
<rect x="27" y="7" width="2" height="1" fill="#000000" />
<rect x="4" y="8" width="1" height="16" fill="#000000" />
<rect x="5" y="8" width="1" height="1" fill="#FECB60" />
<rect x="6" y="8" width="1" height="2" fill="#92590C" />
<rect x="7" y="8" width="7" height="1" fill="#CC912B" />
<rect x="14" y="8" width="1" height="16" fill="#000000" />
<rect x="18" y="8" width="1" height="16" fill="#000000" />
<rect x="19" y="8" width="7" height="1" fill="#CC912B" />
<rect x="26" y="8" width="1" height="2" fill="#92590C" />
<rect x="27" y="8" width="1" height="1" fill="#FECB60" />
<rect x="28" y="8" width="1" height="16" fill="#000000" />
<rect x="5" y="9" width="1" height="13" fill="#CC912B" />
<rect x="7" y="9" width="6" height="1" fill="#CC912B" />
<rect x="13" y="9" width="1" height="15" fill="#000000" />
<rect x="19" y="9" width="1" height="15" fill="#000000" />
<rect x="20" y="9" width="6" height="1" fill="#CC912B" />
<rect x="27" y="9" width="1" height="13" fill="#CC912B" />
<rect x="6" y="10" width="6" height="1" fill="#CC912B" />
<rect x="12" y="10" width="1" height="14" fill="#000000" />
<rect x="20" y="10" width="1" height="14" fill="#000000" />
<rect x="21" y="10" width="6" height="1" fill="#CC912B" />
<rect x="6" y="11" width="5" height="1" fill="#CC912B" />
<rect x="11" y="11" width="1" height="4" fill="#000000" />
<rect x="21" y="11" width="1" height="4" fill="#000000" />
<rect x="22" y="11" width="5" height="1" fill="#CC912B" />
<rect x="6" y="12" width="4" height="1" fill="#CC912B" />
<rect x="10" y="12" width="1" height="3" fill="#000000" />
<rect x="22" y="12" width="1" height="3" fill="#000000" />
<rect x="23" y="12" width="4" height="1" fill="#CC912B" />
<rect x="6" y="13" width="3" height="10" fill="#CC912B" />
<rect x="9" y="13" width="1" height="1" fill="#000000" />
<rect x="23" y="13" width="1" height="1" fill="#000000" />
<rect x="24" y="13" width="3" height="10" fill="#CC912B" />
<rect x="9" y="14" width="1" height="11" fill="#CC912B" />
<rect x="23" y="14" width="1" height="11" fill="#CC912B" />
<rect x="10" y="15" width="2" height="10" fill="#CC912B" />
<rect x="21" y="15" width="2" height="10" fill="#CC912B" />
<rect x="5" y="22" width="1" height="1" fill="#FFCE65" />
<rect x="27" y="22" width="1" height="1" fill="#FFCE65" />
<rect x="5" y="23" width="1" height="1" fill="#8C5D17" />
<rect x="6" y="23" width="1" height="1" fill="#FFCE65" />
<rect x="7" y="23" width="2" height="1" fill="#CC912B" />
<rect x="24" y="23" width="2" height="1" fill="#CC912B" />
<rect x="26" y="23" width="1" height="1" fill="#FFCE65" />
<rect x="27" y="23" width="1" height="1" fill="#8C5D17" />
<rect x="5" y="24" width="1" height="3" fill="#000000" />
<rect x="6" y="24" width="1" height="1" fill="#8C5D17" />
<rect x="7" y="24" width="1" height="1" fill="#FFFFFF" />
<rect x="8" y="24" width="1" height="1" fill="#CC912B" />
<rect x="12" y="24" width="9" height="1" fill="#CC912B" />
<rect x="24" y="24" width="1" height="1" fill="#CC912B" />
<rect x="25" y="24" width="1" height="1" fill="#FFCE65" />
<rect x="26" y="24" width="1" height="1" fill="#8C5D17" />
<rect x="27" y="24" width="1" height="3" fill="#000000" />
<rect x="6" y="25" width="1" height="1" fill="#4A421E" />
<rect x="7" y="25" width="1" height="1" fill="#8C5D17" />
<rect x="8" y="25" width="2" height="1" fill="#FFFFFF" />
<rect x="10" y="25" width="1" height="1" fill="#FFCE65" />
<rect x="11" y="25" width="1" height="1" fill="#FFFFFF" />
<rect x="12" y="25" width="13" height="1" fill="#FFCE65" />
<rect x="25" y="25" width="1" height="1" fill="#8C5D17" />
<rect x="26" y="25" width="1" height="1" fill="#4A421E" />
<rect x="6" y="26" width="1" height="2" fill="#000000" />
<rect x="7" y="26" width="1" height="1" fill="#4A421E" />
<rect x="8" y="26" width="17" height="1" fill="#8C5D17" />
<rect x="25" y="26" width="1" height="1" fill="#4A421E" />
<rect x="26" y="26" width="1" height="2" fill="#000000" />
<rect x="7" y="27" width="1" height="2" fill="#000000" />
<rect x="8" y="27" width="17" height="1" fill="#4A421E" />
<rect x="25" y="27" width="1" height="2" fill="#000000" />
<rect x="8" y="28" width="17" height="1" fill="#000000" />
</svg>